<svg xmlns="http://www.w3.org/2000/svg" xmlns:xlink="http://www.w3.org/1999/xlink" viewBox="0 0 32 32">
  <defs>
    <style>
      .cls-1 {
        fill: url(#linear-gradient);
      }

      .cls-2 {
        fill: none;
      }
    </style>
    <linearGradient id="linear-gradient" x1="47.77" y1="13.64" x2="31.23" y2="-8.9" gradientTransform="matrix(0.99, -0.11, -0.11, -0.99, -22.84, 19.28)" gradientUnits="userSpaceOnUse">
      <stop offset="0.07" stop-color="#84d9f7"/>
      <stop offset="0.27" stop-color="#74c5f5"/>
      <stop offset="0.68" stop-color="#4990f0"/>
      <stop offset="1" stop-color="#2563eb"/>
    </linearGradient>
  </defs>
  <g id="Layer_2" data-name="Layer 2">
    <g id="Layer_1-2" data-name="Layer 1">
      <path class="cls-1" d="M26.6,4.4c-.1-.3-.3-.6-.6-.6a14,14,0,0,0-3.9-.4c-4.9-.1-7.8,2.7-9.9,6.3L7.3,9.6a2.37,2.37,0,0,0-2,1.3L3,15.9a1.09,1.09,0,0,0-.1.5A1.13,1.13,0,0,0,4,17.6l4.9.1L7.8,18.8a1.81,1.81,0,0,0,0,2.3l2.4,2.6a1.37,1.37,0,0,0,2.1,0l1.1-1.1v5.3a1.13,1.13,0,0,0,1.1,1.2A.9.9,0,0,0,15,29l4.6-2.4a2.61,2.61,0,0,0,1.2-2.2V19.1c3.4-2.3,6-5.4,6-10.6A9.83,9.83,0,0,0,26.6,4.4ZM21,11.9a2,2,0,0,1-1.9-2.1,1.92,1.92,0,0,1,1.9-2,2,2,0,0,1,1.9,2.1A2.06,2.06,0,0,1,21,11.9Z"/>
      <rect class="cls-2" width="32" height="32"/>
    </g>
  </g>
</svg>
