<svg xmlns="http://www.w3.org/2000/svg" xmlns:xlink="http://www.w3.org/1999/xlink" viewBox="0 0 32.5 32.5">
  <defs>
    <style>
      .cls-1 {
        fill: url(#linear-gradient);
      }

      .cls-2 {
        fill: none;
        stroke-miterlimit: 10;
        stroke-width: 0.5px;
        stroke: url(#linear-gradient-2);
      }
    </style>
    <linearGradient id="linear-gradient" x1="25.18" y1="1.77" x2="8.64" y2="24.31" gradientTransform="translate(-1.66 1.82) rotate(-6.28)" gradientUnits="userSpaceOnUse">
      <stop offset="0.07" stop-color="#84d9f7"/>
      <stop offset="0.27" stop-color="#74c5f5"/>
      <stop offset="0.68" stop-color="#4990f0"/>
      <stop offset="1" stop-color="#2563eb"/>
    </linearGradient>
    <linearGradient id="linear-gradient-2" x1="0" y1="16.25" x2="32.5" y2="16.25" gradientTransform="matrix(1, 0, 0, 1, 0, 0)" xlink:href="#linear-gradient"/>
  </defs>
  <g id="Layer_2" data-name="Layer 2">
    <g id="Layer_1-2" data-name="Layer 1">
      <path class="cls-1" d="M26.93,4.7a.83.83,0,0,0-.57-.63,15.33,15.33,0,0,0-3.89-.41C17.61,3.58,14.7,6.34,12.54,10L7.63,9.93a2.4,2.4,0,0,0-2,1.31l-2.32,5a1.63,1.63,0,0,0-.12.54A1.2,1.2,0,0,0,4.32,18l4.88.08-1,1.12a1.76,1.76,0,0,0,0,2.3l2.41,2.63a1.46,1.46,0,0,0,2.13,0L13.74,23l0,5.28a1.2,1.2,0,0,0,1.13,1.23,1.08,1.08,0,0,0,.5-.12L20,27a2.66,2.66,0,0,0,1.24-2.16V19.52c3.41-2.3,6-5.41,6-10.62A19.7,19.7,0,0,0,26.93,4.7Zm-5.68,7.47a2,2,0,0,1-1.89-2.06,1.92,1.92,0,0,1,1.88-2,2,2,0,0,1,1.89,2.06A1.92,1.92,0,0,1,21.25,12.17Z"/>
      <rect class="cls-2" x="0.25" y="0.25" width="32" height="32" transform="translate(32.5 32.5) rotate(180)"/>
    </g>
  </g>
</svg>
