<svg xmlns="http://www.w3.org/2000/svg" xmlns:xlink="http://www.w3.org/1999/xlink" viewBox="0 0 531.56 491.75">
  <defs>
    <style>
      .cls-1 {
        fill: url(#linear-gradient);
      }
    </style>
    <linearGradient id="linear-gradient" x1="235.38" y1="-23.94" x2="292.14" y2="464.52" gradientTransform="translate(29.21 -27.89) rotate(6.63)" gradientUnits="userSpaceOnUse">
      <stop offset="0.07" stop-color="#84d9f7"/>
      <stop offset="0.27" stop-color="#74c5f5"/>
      <stop offset="0.68" stop-color="#4990f0"/>
      <stop offset="1" stop-color="#2563eb"/>
    </linearGradient>
  </defs>
  <g id="Layer_2" data-name="Layer 2">
    <g id="Layer_1-2" data-name="Layer 1">
      <path class="cls-1" d="M530.18,31.73c-.55-5.63-5.35-11.7-10.72-13.52C488.27,7.64,463.23,4.73,438.3,1.83,335.76-10.09,267.89,37.6,213.58,104.58l-103.52-12c-16.24-1.88-36.69,7.69-45.65,21.35L3.9,206.35A28.33,28.33,0,0,0,.16,216.69,24,24,0,0,0,21.24,243.3l103.11,12L99.44,275C86.83,285,82.8,305.55,94.21,320L138.9,376.4c9.79,12.4,30.42,16.78,45,5.22l24.92-19.72-12,103.15a24,24,0,0,0,21.08,26.61,28.7,28.7,0,0,0,10.93-1.26l103.77-37.67c15.37-5.56,29.38-23.26,31.27-39.51l12.06-103.74c77.46-37.62,139.69-92.9,151.55-194.9C530.46,89.55,533.37,64.52,530.18,31.73ZM392.72,165.66a40,40,0,1,1,44.36-35.11A40,40,0,0,1,392.72,165.66Z"/>
    </g>
  </g>
</svg>
